<?xml version="1.0" encoding="UTF-8"?>
<svg width="568px" height="428px" viewBox="0 0 568 428" version="1.1" xmlns="http://www.w3.org/2000/svg" xmlns:xlink="http://www.w3.org/1999/xlink">
    <!-- Generator: Sketch 54.1 (76490) - https://sketchapp.com -->
    <title>Group</title>
    <desc>Created with Sketch.</desc>
    <defs>
        <linearGradient x1="2.9725735e-14%" y1="50.0007309%" x2="99.9986254%" y2="50.0007309%" id="linearGradient-1">
            <stop stop-color="#F0674C" offset="0%"></stop>
            <stop stop-color="#FABDAB" offset="100%"></stop>
        </linearGradient>
        <linearGradient x1="-0.000610114591%" y1="50.0005545%" x2="100.000028%" y2="50.0005545%" id="linearGradient-2">
            <stop stop-color="#F06EA9" offset="0%"></stop>
            <stop stop-color="#FABDAB" offset="100%"></stop>
        </linearGradient>
        <linearGradient x1="-0.000303075388%" y1="50.0001455%" x2="100.000496%" y2="50.0001455%" id="linearGradient-3">
            <stop stop-color="#00B7D6" offset="0%"></stop>
            <stop stop-color="#FABDAB" offset="100%"></stop>
        </linearGradient>
        <linearGradient x1="34.4226907%" y1="9.26270405%" x2="52.4184253%" y2="107.65254%" id="linearGradient-4">
            <stop stop-color="#F0674C" offset="0%"></stop>
            <stop stop-color="#F06EA9" offset="50%"></stop>
            <stop stop-color="#00B7D6" offset="100%"></stop>
        </linearGradient>
    </defs>
    <g id="-" stroke="none" stroke-width="1" fill="none" fill-rule="evenodd">
        <g id="Group" fill-rule="nonzero">
            <path d="M423.278,99.599 C422.281,98.656 421.1,98.184 419.739,98.184 C419.112,98.184 418.036,98.316 416.516,98.577 C414.996,98.841 413.765,98.97 412.822,98.97 C410.514,98.97 409.099,97.189 408.574,93.624 C408.47,92.786 408.419,90.113 408.419,85.604 L408.419,55.724 C408.419,49.96 407.685,45.294 406.216,41.728 C404.434,37.43 401.027,33.84 395.994,30.956 C390.964,28.074 385.617,26.632 379.956,26.632 C369.471,26.632 361.085,30.618 354.795,38.584 L354.795,34.105 C354.795,30.905 353.272,29.306 350.233,29.306 C350.129,29.306 348.713,29.439 345.988,29.699 C344.731,29.962 343.259,30.092 341.584,30.092 L335.766,29.463 C335.346,29.359 334.822,29.306 334.193,29.306 C329.475,29.306 327.116,31.036 327.116,34.495 C327.116,37.852 329.038,39.527 332.883,39.527 C333.63,39.527 334.723,39.397 336.166,39.135 C337.604,38.875 338.703,38.742 339.45,38.742 C341.156,38.742 342.359,39.398 343.053,40.708 C343.746,42.02 344.202,44.457 344.414,48.02 L344.414,90.008 C344.306,96.09 342.654,99.129 339.45,99.129 C338.06,99.129 336.645,98.971 335.205,98.657 C333.762,98.342 332.774,98.185 332.241,98.185 C328.824,98.185 327.116,99.863 327.116,103.217 C327.116,106.783 329.318,108.564 333.721,108.564 C334.35,108.564 336.97,108.301 341.584,107.777 C345.253,107.36 348.188,107.149 350.391,107.149 C353.221,107.149 355.789,107.306 358.097,107.621 C362.709,108.249 365.435,108.564 366.274,108.564 C370.465,108.564 372.564,106.861 372.564,103.453 C372.564,99.942 370.937,98.185 367.689,98.185 C366.746,98.185 365.539,98.369 364.074,98.735 C362.602,99.104 361.45,99.286 360.614,99.286 C358.936,99.286 357.784,98.448 357.154,96.769 C356.524,95.093 356.211,91.948 356.211,87.334 L356.211,66.418 C356.211,56.565 357.465,49.591 359.969,45.503 C363.622,39.527 369.628,36.539 377.985,36.539 C382.37,36.539 386.286,37.746 389.733,40.156 C392.864,42.358 394.9,45.452 395.843,49.434 C396.362,51.533 396.625,55.359 396.625,60.914 L396.625,90.479 C396.41,96.245 395.02,99.128 392.456,99.128 C391.921,99.128 390.639,98.919 388.61,98.499 C387.54,98.29 386.578,98.185 385.723,98.185 C382.089,98.185 380.272,99.811 380.272,103.06 C380.272,106.732 382.368,108.565 386.562,108.565 C386.875,108.565 389.652,108.25 394.898,107.622 C396.677,107.413 398.931,107.307 401.66,107.307 C404.591,107.307 407.738,107.518 411.094,107.936 C414.45,108.354 416.859,108.565 418.328,108.565 C420.11,108.565 421.63,108.039 422.89,106.992 C424.147,105.945 424.777,104.633 424.777,103.06 C424.772,101.698 424.272,100.543 423.278,99.599 Z M320.593,77.583 C317.394,77.583 315.794,79.249 315.794,82.581 L315.794,90.233 C315.794,96.897 313.959,100.229 310.29,100.229 C307.354,100.229 305.572,98.398 304.943,94.737 C304.732,93.796 304.629,90.815 304.629,85.793 L304.629,54.093 C304.629,35.787 295.088,26.631 276.008,26.631 C267.725,26.631 260.675,28.73 254.857,32.921 C249.038,37.116 246.129,42.148 246.129,48.018 C246.129,50.745 247.046,53.051 248.882,54.938 C250.715,56.825 252.995,57.768 255.722,57.768 C258.027,57.768 259.941,57.087 261.462,55.724 C262.981,54.363 263.742,52.633 263.742,50.535 C263.742,48.019 263.008,46.237 261.541,45.189 C260.598,44.56 260.125,44.037 260.125,43.616 C260.125,42.464 260.912,41.363 262.484,40.313 C266.573,37.693 270.976,36.382 275.694,36.382 C281.04,36.382 285.208,37.615 288.196,40.077 C291.184,42.541 292.678,45.923 292.678,50.22 C292.678,54.729 291.341,57.823 288.668,59.498 C285.995,61.177 280.255,62.486 271.449,63.43 C265.261,64.164 261.148,64.766 259.104,65.238 C257.06,65.71 254.622,66.731 251.791,68.304 C244.346,72.393 240.626,78.789 240.626,87.489 C240.626,94.514 243.167,100.124 248.253,104.316 C253.336,108.508 260.125,110.606 268.618,110.606 C280.044,110.606 288.433,106.674 293.779,98.812 C295.769,106.257 301.064,109.977 309.662,109.977 C320.145,109.977 325.491,104.945 325.702,94.88 L325.702,85.13 C325.701,80.1 323.998,77.583 320.593,77.583 Z M292.205,78.684 C292.099,85.395 290.028,90.663 285.993,94.488 C281.956,98.316 276.425,100.228 269.403,100.228 C264.474,100.228 260.569,99.076 257.687,96.768 C254.802,94.463 253.362,91.318 253.362,87.333 C253.362,79.681 259.314,75.278 271.219,74.123 C277.794,73.494 282.362,72.762 284.923,71.921 C287.481,71.084 289.908,69.616 292.206,67.518 L292.206,78.684 L292.205,78.684 Z M162.664,3.987 C157.848,2.94 152.094,2.414 145.396,2.414 C140.998,2.414 134.508,2.783 125.928,3.515 C122.264,3.829 119.124,3.987 116.507,3.987 C112.737,3.987 109.599,3.829 107.088,3.515 L99.395,2.572 C98.557,2.468 97.771,2.414 97.038,2.414 C92.433,2.414 90.131,4.249 90.131,7.918 C90.131,11.378 91.795,13.107 95.124,13.107 C95.954,13.107 97.36,12.982 99.338,12.729 C100.69,12.562 101.784,12.478 102.616,12.478 C107.921,12.478 110.575,16.35 110.575,24.093 L110.575,87.04 C110.575,94.888 107.902,98.813 102.554,98.813 C101.085,98.813 99.984,98.709 99.252,98.498 C97.573,98.184 96.158,98.026 95.006,98.026 C93.642,98.026 92.49,98.525 91.547,99.52 C90.603,100.517 90.131,101.749 90.131,103.215 C90.131,106.886 92.49,108.719 97.208,108.719 L98.309,108.719 C98.726,108.614 99.041,108.562 99.252,108.562 L108.373,107.304 C110.678,106.99 113.666,106.832 117.337,106.832 C121.74,106.832 125.042,106.989 127.244,107.304 L135.107,108.405 L137.309,108.719 C141.921,108.719 144.228,106.832 144.228,103.058 C144.228,99.705 142.602,98.026 139.353,98.026 C138.827,98.026 137.412,98.132 135.107,98.34 C134.058,98.655 132.957,98.813 131.804,98.813 C128.03,98.813 125.749,97.405 124.964,94.587 C124.177,91.768 123.785,83.731 123.785,70.472 L123.785,67.34 C123.785,65.254 124.021,63.925 124.493,63.35 C124.965,62.775 126.039,62.487 127.717,62.487 L145.33,62.487 C158.12,62.487 167.896,59.868 174.658,54.624 C181.42,49.383 184.801,41.835 184.801,31.979 C184.801,24.85 182.838,18.769 178.914,13.737 C174.986,8.705 169.571,5.456 162.664,3.987 Z M157.438,50.85 C152.509,52.005 146.325,52.579 138.882,52.579 L129.761,52.579 C125.775,52.162 123.786,50.535 123.786,47.704 L123.786,24.431 C123.786,19.713 124.152,16.831 124.886,15.781 C126.353,13.579 133.378,12.478 145.959,12.478 C162.943,12.478 171.435,19.137 171.435,32.45 C171.434,42.515 166.767,48.648 157.438,50.85 Z M228.937,98.027 C228.514,98.027 227.667,98.133 226.396,98.341 C224.384,98.867 223.059,99.128 222.425,99.128 C219.673,99.128 218.243,96.459 218.138,91.12 L218.138,42.291 C218.138,27.534 218.504,16.125 219.239,8.063 C219.342,7.542 219.396,6.756 219.396,5.709 C219.396,2.675 218.19,1.156 215.779,1.156 C214.73,1.156 213.158,1.313 211.061,1.628 C208.963,1.943 207.39,2.1 206.343,2.1 C205.188,2.1 203.773,1.997 202.098,1.786 L198.324,1.314 C197.483,1.211 196.489,1.157 195.336,1.157 C191.141,1.157 189.046,2.887 189.046,6.346 C189.046,9.702 190.828,11.379 194.392,11.379 C195.125,11.379 196.068,11.275 197.223,11.064 C199.634,10.646 200.997,10.435 201.312,10.435 C203.514,10.435 204.98,11.647 205.716,14.065 C205.925,15.119 206.082,17.222 206.188,20.378 L206.188,72.931 L206.028,83.979 C205.922,90.819 205.632,95.053 205.156,96.685 C204.679,98.316 203.488,99.13 201.586,99.13 C201.161,99.13 199.627,98.837 196.984,98.25 C196.664,98.25 196.188,98.176 195.554,98.029 L194.443,98.029 C190.846,98.029 189.048,99.655 189.048,102.904 C189.048,106.678 191.242,108.565 195.63,108.565 L196.414,108.565 C197.979,108.565 200.435,108.354 203.778,107.936 C207.119,107.518 209.628,107.307 211.299,107.307 C213.285,107.307 216.105,107.518 219.762,107.936 C223.418,108.354 226.084,108.565 227.755,108.565 C232.038,108.565 234.181,106.835 234.181,103.376 C234.178,99.811 232.431,98.027 228.937,98.027 Z" id="Shape" fill="url(#linearGradient-1)"></path>
            <path d="M276.426,170.919 C265.207,170.919 256.27,174.72 249.614,182.321 C242.955,189.924 239.628,200.118 239.628,212.908 C239.628,225.699 242.93,235.895 249.534,243.494 C256.139,251.097 264.946,254.896 275.954,254.896 C287.276,254.896 296.343,251.019 303.159,243.259 C309.973,235.502 313.381,225.228 313.381,212.436 C313.381,199.647 310.078,189.531 303.474,182.086 C296.869,174.642 287.852,170.919 276.426,170.919 Z M294.117,236.102 C289.766,241.712 283.763,244.516 276.111,244.516 C268.666,244.516 262.875,241.712 258.734,236.102 C254.592,230.495 252.523,222.762 252.523,212.907 L252.523,210.863 C252.941,201.427 255.248,194.141 259.442,189.004 C263.634,183.868 269.401,181.298 276.741,181.298 C292.676,181.298 300.644,191.783 300.644,212.75 C300.644,222.711 298.466,230.496 294.117,236.102 Z M245.918,157.238 C249.795,157.238 251.736,155.562 251.736,152.205 C251.736,148.537 249.744,146.701 245.761,146.701 C244.291,146.701 242.51,146.858 240.414,147.173 C234.962,148.014 229.981,148.431 225.475,148.431 C221.175,148.431 216.091,148.013 210.221,147.173 C208.019,146.859 206.132,146.701 204.56,146.701 C200.365,146.701 198.27,148.563 198.27,152.284 C198.27,156.006 200.418,157.866 204.718,157.866 C205.661,157.866 207.023,157.783 208.807,157.616 L212.896,157.238 L215.727,156.765 L216.041,156.765 C217.402,156.765 218.085,157.238 218.085,158.181 C218.085,159.021 217.822,159.859 217.299,160.697 L192.923,201.584 L168.863,160.697 C168.443,159.965 168.18,159.518 168.076,159.36 C167.971,159.203 167.919,158.915 167.919,158.495 C167.919,157.552 168.547,157.134 169.806,157.237 L178.455,157.237 C183.591,157.237 186.161,155.507 186.161,152.044 C186.161,148.482 184.011,146.7 179.714,146.7 C178.141,146.7 176.254,146.857 174.053,147.172 C167.551,148.115 162.676,148.587 159.428,148.587 C155.024,148.587 150.307,148.169 145.275,147.329 C142.759,146.911 140.661,146.7 138.985,146.7 C134.793,146.7 132.694,148.587 132.694,152.361 C132.694,156.032 135.105,157.865 139.928,157.865 L142.917,157.865 C143.545,157.448 144.49,157.237 145.747,157.237 C148.052,157.237 149.993,158.028 151.566,159.605 C152.089,160.131 153.348,161.974 155.34,165.129 L185.848,213.583 C185.848,214.743 185.899,216.163 186.005,217.844 L186.005,220.844 C186.005,229.156 185.95,233.786 185.848,234.734 C184.905,240.312 182.231,243.099 177.827,243.099 C176.987,243.099 175.756,242.968 174.132,242.706 C172.506,242.446 171.274,242.313 170.437,242.313 C167.08,242.313 165.404,244.043 165.404,247.502 C165.404,251.173 167.763,253.006 172.481,253.006 L173.582,253.006 C173.999,252.901 174.314,252.849 174.525,252.849 L182.545,251.748 C185.585,251.33 188.782,251.119 192.138,251.119 C195.283,251.119 198.48,251.33 201.731,251.748 L210.38,252.849 C210.694,252.849 211.061,252.901 211.481,253.006 L212.424,253.006 C217.142,253.006 219.5,251.119 219.5,247.345 C219.5,243.992 217.874,242.313 214.625,242.313 C213.784,242.313 212.502,242.446 210.772,242.706 C209.042,242.969 207.757,243.099 206.919,243.099 C203.354,243.099 201.125,241.789 200.235,239.167 C199.343,236.548 198.898,229.889 198.898,219.195 L198.898,212.59 L229.877,164 L232.236,160.383 C233.911,157.866 236.113,156.609 238.841,156.609 C239.47,156.609 240.623,156.714 242.301,156.923 C243.138,157.135 244.345,157.238 245.918,157.238 Z M411.194,242.314 C410.46,242.314 409.41,242.447 408.049,242.707 C406.686,242.97 405.637,243.1 404.904,243.1 C402.492,243.1 401.024,240.316 400.502,234.746 C400.396,234.011 400.344,230.438 400.344,224.028 L400.344,199.756 C400.344,191.982 400.605,186.097 401.131,182.105 C401.34,181.264 401.446,180.11 401.446,178.638 C401.446,175.277 399.873,173.593 396.727,173.593 C395.886,173.593 394.63,173.699 392.953,173.908 C391.275,174.119 390.017,174.222 389.179,174.222 C388.234,174.222 386.792,174.119 384.853,173.908 C382.912,173.699 381.472,173.593 380.529,173.593 C376.442,173.593 374.397,175.372 374.397,178.93 C374.397,182.083 376.23,183.658 379.901,183.658 L384.62,183.658 C386.82,183.658 388.181,186.174 388.707,191.206 L388.707,210.077 C388.707,221.505 387.868,229.262 386.192,233.351 C384.829,236.707 382.417,239.405 378.958,241.45 C375.498,243.494 371.514,244.517 367.006,244.517 C357.885,244.517 352.119,241.214 349.708,234.61 C348.239,230.627 347.506,224.074 347.506,214.953 L347.506,204.73 L347.978,193.093 L347.978,179.569 C347.978,175.586 346.352,173.593 343.104,173.593 C342.892,173.593 342.002,173.699 340.429,173.908 C338.123,174.222 336.497,174.38 335.554,174.38 C334.506,174.38 332.961,174.249 330.916,173.987 C328.871,173.727 327.323,173.594 326.277,173.594 C321.767,173.594 319.515,175.245 319.515,178.548 C319.515,181.956 321.369,183.659 325.072,183.659 C325.813,183.659 326.87,183.58 328.247,183.423 C329.624,183.266 330.628,183.187 331.264,183.187 C334.333,183.187 335.87,190.369 335.87,204.731 L335.87,217.783 C335.87,224.808 335.921,229.42 336.025,231.622 C336.234,236.131 337.386,240.062 339.485,243.416 C344.306,251.07 352.905,254.896 365.277,254.896 C376.178,254.896 384.408,251.07 389.965,243.416 L389.965,248.291 C389.965,251.333 391.432,252.851 394.369,252.851 C395.312,252.851 396.414,252.694 397.671,252.379 C399.559,252.17 400.659,252.064 400.974,252.064 C401.602,252.064 403.226,252.221 405.849,252.536 C407.63,252.745 408.993,252.851 409.938,252.851 C414.34,252.851 416.542,251.07 416.542,247.504 C416.541,244.044 414.757,242.314 411.194,242.314 Z M486.441,177.131 C481.881,172.991 475.929,170.919 468.592,170.919 C459.471,170.919 452.182,174.747 446.732,182.399 L446.732,178.077 C446.732,175.089 445.369,173.593 442.643,173.593 C441.489,173.593 440.493,173.726 439.656,173.986 C437.768,174.249 436.405,174.379 435.567,174.379 C434.518,174.379 432.944,174.248 430.848,173.986 C428.749,173.726 427.177,173.593 426.131,173.593 C421.621,173.593 419.369,175.428 419.369,179.097 C419.369,182.454 421.098,184.129 424.558,184.129 C425.395,184.129 426.548,183.972 428.018,183.657 C429.485,183.342 430.638,183.185 431.477,183.185 C434.309,183.185 435.881,186.278 436.196,192.463 L436.668,228.16 L436.668,236.181 C436.456,241.004 435.027,243.415 432.383,243.415 C431.96,243.415 431.218,243.312 430.161,243.101 L427.78,242.629 C427.25,242.526 426.455,242.472 425.399,242.472 C421.378,242.472 419.37,244.098 419.37,247.347 C419.37,251.019 421.51,252.851 425.795,252.851 L434.572,252.064 C436.975,251.855 440.266,251.75 444.444,251.75 C446.011,251.75 448.389,251.934 451.575,252.3 C454.761,252.666 457.14,252.851 458.708,252.851 L459.335,252.851 C463.618,252.851 465.76,251.045 465.76,247.428 C465.76,244.125 464.082,242.472 460.728,242.472 C459.887,242.472 458.893,242.607 457.741,242.877 C456.27,243.235 454.855,243.415 453.494,243.415 C450.767,243.415 449.143,240.427 448.619,234.451 C448.515,233.613 448.462,229.682 448.462,222.657 L448.462,212.278 C448.462,203.157 449.299,196.343 450.979,191.834 C453.703,184.497 459.156,180.826 467.333,180.826 C471.316,180.826 474.646,181.875 477.319,183.971 C479.993,186.07 481.328,188.637 481.328,191.677 C481.328,192.726 481.013,193.879 480.385,195.137 C479.336,194.822 478.655,194.665 478.34,194.665 C476.662,194.665 475.195,195.321 473.938,196.63 C472.68,197.942 472.05,199.436 472.05,201.112 C472.05,203.211 472.889,204.992 474.567,206.459 C476.243,207.929 478.287,208.661 480.701,208.661 C484.475,208.661 487.514,207.221 489.822,204.337 C492.127,201.454 493.282,197.707 493.282,193.093 C493.282,186.594 491.001,181.274 486.441,177.131 Z" id="Shape" fill="url(#linearGradient-2)"></path>
            <path d="M282.479,294.135 C276.083,291.411 268.115,290.046 258.576,290.046 C255.326,290.046 252.704,290.152 250.713,290.361 L240.492,291.461 C237.556,291.776 234.62,291.933 231.686,291.933 C228.121,291.933 224.766,291.724 221.621,291.305 L213.286,290.205 C212.446,290.101 211.766,290.047 211.242,290.047 C206.524,290.047 204.166,291.883 204.166,295.551 C204.166,298.908 205.79,300.584 209.041,300.584 C209.984,300.584 211.4,300.426 213.286,300.111 C214.544,299.903 215.645,299.798 216.589,299.798 C221.936,299.798 224.61,303.73 224.61,311.592 L224.61,374.652 C224.61,382.514 221.936,386.446 216.589,386.446 C215.119,386.446 214.019,386.343 213.286,386.131 C211.608,385.818 210.193,385.659 209.041,385.659 C207.677,385.659 206.524,386.158 205.581,387.153 C204.638,388.15 204.166,389.382 204.166,390.849 C204.166,394.52 206.419,396.353 210.928,396.353 L212.186,396.353 C212.709,396.247 213.075,396.196 213.286,396.196 L220.835,395.094 C223.037,394.781 225.867,394.622 229.327,394.622 C233.31,394.622 237.135,394.78 240.807,395.094 L251.658,396.037 C254.068,396.246 256.427,396.352 258.734,396.352 C270.16,396.352 279.91,393.993 287.984,389.275 C294.692,385.399 299.987,379.344 303.867,371.113 C307.745,362.884 309.686,353.632 309.686,343.355 C309.686,331.719 307.248,321.497 302.373,312.69 C297.497,303.885 290.866,297.701 282.479,294.135 Z M285.467,375.474 C279.806,382.266 270.684,385.658 258.104,385.658 C250.87,385.658 246.467,385.449 244.895,385.031 C240.177,383.988 237.818,381.063 237.818,376.257 L237.818,309.983 C237.818,305.597 238.734,302.933 240.57,301.993 C242.404,301.054 247.463,300.583 255.746,300.583 C262.245,300.583 267.8,301.264 272.415,302.619 C279.649,304.708 285.334,309.384 289.478,316.643 C293.619,323.9 295.689,332.754 295.689,343.199 C295.689,356.572 292.281,367.329 285.467,375.474 Z M405.297,382.513 L405.297,372.764 C405.297,367.732 403.594,365.215 400.187,365.215 C396.99,365.215 395.388,366.88 395.388,370.212 L395.388,377.864 C395.388,384.528 393.553,387.86 389.886,387.86 C386.948,387.86 385.167,386.03 384.539,382.369 C384.327,381.427 384.224,378.447 384.224,373.424 L384.224,341.725 C384.224,323.419 374.684,314.264 355.604,314.264 C347.319,314.264 340.271,316.363 334.452,320.554 C328.633,324.749 325.724,329.781 325.724,335.65 C325.724,338.377 326.641,340.684 328.477,342.57 C330.31,344.457 332.589,345.4 335.318,345.4 C337.623,345.4 339.536,344.719 341.058,343.355 C342.576,341.994 343.337,340.265 343.337,338.166 C343.337,335.649 342.603,333.869 341.137,332.819 C340.194,332.191 339.72,331.667 339.72,331.247 C339.72,330.095 340.507,328.993 342.08,327.944 C346.167,325.324 350.571,324.014 355.289,324.014 C360.634,324.014 364.804,325.247 367.791,327.708 C370.778,330.173 372.272,333.554 372.272,337.851 C372.272,342.361 370.936,345.454 368.263,347.13 C365.589,348.808 359.85,350.117 351.043,351.062 C344.857,351.797 340.743,352.398 338.7,352.87 C336.655,353.342 334.217,354.364 331.387,355.936 C323.941,360.025 320.221,366.421 320.221,375.122 C320.221,382.147 322.762,387.757 327.847,391.948 C332.931,396.139 339.72,398.238 348.212,398.238 C359.637,398.238 368.027,394.306 373.373,386.444 C375.364,393.89 380.657,397.61 389.256,397.61 C399.738,397.611 405.085,392.579 405.297,382.513 Z M371.8,366.316 C371.696,373.027 369.624,378.295 365.589,382.121 C361.553,385.948 356.022,387.861 348.999,387.861 C344.07,387.861 340.165,386.709 337.284,384.401 C334.398,382.096 332.958,378.951 332.958,374.967 C332.958,367.315 338.91,362.912 350.815,361.756 C357.39,361.128 361.958,360.395 364.52,359.554 C367.078,358.717 369.504,357.249 371.801,355.152 L371.801,366.316 L371.8,366.316 Z M490.846,316.938 C489.062,316.938 486.442,317.174 482.982,317.646 C479.522,318.118 476.901,318.354 475.12,318.354 C473.441,318.354 471.869,318.251 470.401,318.039 L464.741,317.254 C463.27,317.045 462.224,316.939 461.596,316.939 C457.086,316.939 454.834,318.723 454.834,322.286 C454.834,325.642 456.563,327.318 460.023,327.318 C460.547,327.318 461.647,327.215 463.325,327.003 C464.058,326.794 465.055,326.688 466.313,326.688 C468.724,326.688 469.93,327.581 469.93,329.361 C469.93,330.202 469.667,331.354 469.143,332.821 L449.958,385.188 L431.874,332.035 C431.453,330.778 431.244,329.73 431.244,328.89 C431.244,327.424 431.977,326.688 433.446,326.688 C434.074,326.688 435.072,326.794 436.435,327.003 C437.796,327.215 438.793,327.318 439.422,327.318 C443.406,327.318 445.399,325.588 445.399,322.128 C445.399,318.669 443.197,316.939 438.794,316.939 C437.745,316.939 435.595,317.118 432.347,317.477 C428.046,317.958 424.012,318.197 420.238,318.197 C419.712,318.197 419.083,318.145 418.351,318.039 L417.093,318.039 L410.803,317.122 C409.962,317 408.759,316.938 407.186,316.938 C402.361,316.938 399.952,318.722 399.952,322.285 C399.952,325.641 401.785,327.317 405.456,327.317 C405.98,327.317 407.053,327.187 408.68,326.923 C410.304,326.663 411.431,326.531 412.061,326.531 C414.366,326.531 416.411,328.889 418.193,333.608 L420.08,338.64 L437.379,382.358 C440.209,389.489 441.626,394.364 441.626,396.982 C441.626,402.118 439.397,406.758 434.941,410.9 C430.484,415.039 425.479,417.111 419.923,417.111 C415.521,417.111 412.532,415.955 410.959,413.651 C413.998,412.708 415.521,410.558 415.521,407.204 C415.521,405.105 414.733,403.351 413.161,401.936 C411.589,400.521 409.596,399.813 407.186,399.813 C404.144,399.813 401.681,400.834 399.794,402.879 C397.907,404.924 396.964,407.569 396.964,410.82 C396.964,415.433 399.142,419.364 403.492,422.614 C407.84,425.862 413.214,427.489 419.609,427.489 C430.303,427.489 439.213,422.929 446.344,413.808 C450.536,408.461 454.993,399.863 459.71,388.018 L481.098,334.55 C483.194,329.203 485.239,326.53 487.232,326.53 C487.754,326.53 488.698,326.687 490.062,327.002 C490.584,327.214 491.371,327.317 492.42,327.317 C495.88,327.317 497.61,325.614 497.61,322.206 C497.608,318.695 495.352,316.938 490.846,316.938 Z M540.38,350.748 L531.259,349.49 C522.032,348.231 517.42,344.249 517.42,337.539 C517.42,333.87 519.044,330.804 522.295,328.339 C525.543,325.876 529.579,324.643 534.404,324.643 C539.121,324.643 543.235,325.77 546.747,328.024 C550.259,330.28 552.067,332.977 552.173,336.122 L552.173,341.312 C552.276,344.668 553.979,346.344 557.284,346.344 C560.689,346.344 562.395,344.354 562.395,340.369 C562.395,339.111 562.262,337.278 562.001,334.865 C561.738,332.454 561.608,330.618 561.608,329.36 C561.608,327.264 561.782,325.169 562.132,323.07 C562.306,320.555 562.395,318.981 562.395,318.353 C562.395,314.999 560.665,313.321 557.205,313.321 C553.849,313.321 552.173,315.262 552.173,319.14 L552.173,319.768 C547.47,316.099 541.62,314.264 534.619,314.264 C525.736,314.264 518.527,316.543 512.989,321.105 C507.451,325.665 504.682,331.615 504.682,338.954 C504.682,346.713 507.512,352.138 513.173,355.229 C518.835,358.323 527.064,360.446 537.863,361.599 C549.185,362.753 554.847,366.894 554.847,374.021 C554.847,378.007 553.169,381.31 549.815,383.928 C546.458,386.551 542.212,387.86 537.076,387.86 C529.947,387.86 524.076,386.445 519.463,383.615 C514.849,380.783 512.49,377.116 512.387,372.606 C512.281,368.1 511.939,365.322 511.365,364.272 C510.787,363.226 509.399,362.699 507.197,362.699 C503.841,362.699 502.165,364.535 502.165,368.204 C502.165,369.461 502.374,371.191 502.793,373.393 L503.108,384.874 C502.527,390.59 502.215,393.345 502.171,393.152 C502.203,397.378 504.136,399.498 507.984,399.498 C511.547,399.498 513.331,397.611 513.331,393.836 L513.331,390.849 C519.707,395.775 527.233,398.24 535.909,398.24 C545.212,398.24 552.738,395.905 558.487,391.242 C564.238,386.579 567.112,380.47 567.112,372.922 C567.114,360.552 558.202,353.16 540.38,350.748 Z" id="Shape" fill="url(#linearGradient-3)"></path>
            <path d="M171.199,388.396 L10.197,0 L3.22,2.892 C0.559,3.995 -0.704,7.047 0.399,9.708 L161.401,398.104 L168.378,395.212 C171.039,394.109 172.302,391.057 171.199,388.396 Z M32.711,333.237 C14.761,333.237 0.21,347.788 0.21,365.738 C0.21,383.688 14.761,398.239 32.711,398.239 C50.661,398.239 65.212,383.688 65.212,365.738 C65.212,347.788 50.661,333.237 32.711,333.237 Z" id="Shape" fill="url(#linearGradient-4)"></path>
        </g>
    </g>
</svg>